<svg xmlns="http://www.w3.org/2000/svg" version="1.1" xmlns:xlink="http://www.w3.org/1999/xlink" xmlns:svgjs="http://svgjs.com/svgjs" width="32" height="32"><svg baseProfile="full" version="1.1" viewBox="0 0 32 32" xmlns="http://www.w3.org/2000/svg"><polygon fill="#000" points="1,3 8,1 10,8 3,10"></polygon><polygon fill="#000" points="21,3 28,1 30,8 23,10"></polygon><polygon fill="#000" points="21,23 28,21 30,28 23,30"></polygon><polygon fill="#000" points="1,23 8,21 10,28 3,30"></polygon><polygon fill="#000" points="11,4 17,1 20,7 14,10"></polygon><polygon fill="#000" points="1,14 7,11 10,17 4,20"></polygon><polygon fill="#000" points="11,14 17,11 20,17 14,20"></polygon><polygon fill="#000" points="21,14 27,11 30,17 24,20"></polygon><polygon fill="#000" points="11,24 17,21 20,27 14,30"></polygon></svg><style>@media (prefers-color-scheme: light) { :root { filter: none; } }
@media (prefers-color-scheme: dark) { :root { filter: invert(100%); } }
</style></svg>